Coordinates
version=1
nRows=24
nColumns=24
inDegrees=yes

Units are S.I. units (second, meters, Newtons, ...)
Angles are in degrees.

endheader
time	pelvis_tilt	pelvis_list	pelvis_rotation	pelvis_tx	pelvis_ty	pelvis_tz	hip_flexion_r	hip_adduction_r	hip_rotation_r	knee_angle_r	ankle_angle_r	subtalar_angle_r	mtp_angle_r	hip_flexion_l	hip_adduction_l	hip_rotation_l	knee_angle_l	ankle_angle_l	subtalar_angle_l	mtp_angle_l	lumbar_extension	lumbar_bending	lumbar_rotation
      1.74166667	     -0.17989941	      6.08625214	     -2.78960304	      1.46297817	      1.02083419	      0.22311606	     13.93092449	     -5.26217545	      1.83232811	    -63.98939488	      5.72497119	    -15.82111417	      1.06768772	      4.78393532	     10.46557294	      1.65240179	     -7.14650615	      0.87730470	    -16.75572254	      2.83755176	     -0.88726315	     -7.89603424	      4.49222139
      1.74583333	     -0.20782619	      5.98796662	     -2.54685615	      1.46777351	      1.02130777	      0.22271005	     14.45678679	     -5.13519785	      1.66119426	    -63.61126810	      5.88893839	    -15.91758445	      1.02879735	      4.32557890	     10.39100246	      1.89583862	     -6.82692371	      0.94354064	    -16.62438554	      2.81426256	     -0.89311830	     -7.78974000	      4.41708459
      1.75000000	     -0.19619345	      5.90511565	     -2.30858834	      1.47250718	      1.02179693	      0.22228973	     14.93966354	     -5.03618724	      1.48820307	    -63.21150964	      6.01301695	    -16.05603497	      0.87591478	      3.80375605	     10.33970631	      2.23606194	     -6.45574634	      0.95391116	    -16.69603041	      2.71281211	     -0.95702557	     -7.67848714	      4.03359562
      1.75416667	     -0.22912300	      5.80679158	     -2.06204527	      1.47729327	      1.02219895	      0.22188956	     15.45577338	     -4.92041710	      1.31156597	    -62.77705799	      6.16355620	    -16.13668943	      0.83575637	      3.36379084	     10.25655863	      2.47655638	     -6.15754502	      1.02556274	    -16.57868891	      2.68957625	     -0.95813175	     -7.56803542	      3.95315406
      1.75833333	     -0.22011619	      5.71647612	     -1.82671578	      1.48200987	      1.02262387	      0.22149222	     15.92615958	     -4.81730064	      1.14768486	    -62.31769923	      6.23774636	    -16.26944500	      0.71636483	      2.86008231	     10.18605997	      2.80051174	     -5.81705306	      1.08580732	    -16.61966482	      2.61355543	     -1.02002682	     -7.45846942	      3.60427413
      1.76250000	     -0.23074297	      5.64524358	     -1.58927418	      1.48675123	      1.02297779	      0.22109509	     16.41527594	     -4.74419157	      0.97780435	    -61.84824404	      6.37156023	    -16.36609143	      0.54457106	      2.37580136	     10.12972812	      3.10645065	     -5.46107561	      1.07384431	    -16.63972770	      2.50182300	     -1.05130440	     -7.36592225	      3.34930895
      1.76666667	     -0.26527218	      5.55551790	     -1.35575330	      1.49148076	      1.02327144	      0.22072252	     16.91498485	     -4.65078351	      0.81295059	    -61.33773901	      6.50967523	    -16.41461069	      0.50132121	      1.94428772	     10.04298833	      3.32765754	     -5.16508081	      1.14837667	    -16.51698639	      2.47585912	     -1.05187832	     -7.25473445	      3.27196963
      1.77083333	     -0.26261576	      5.47074158	     -1.13358587	      1.49621160	      1.02359497	      0.22036662	     17.36737729	     -4.56147691	      0.66630546	    -60.79752037	      6.56076659	    -16.52296532	      0.38353446	      1.44982321	      9.96241549	      3.61198944	     -4.81453176	      1.19524737	    -16.52900517	      2.40358470	     -1.10572961	     -7.14903618	      2.96020637
      1.77500000	     -0.27608514	      5.39435635	     -0.91078532	      1.50097131	      1.02385290	      0.22001432	     17.82784601	     -4.49020877	      0.51372419	    -60.23862958	      6.66297303	    -16.57177199	      0.27446756	      0.98483514	      9.88549221	      3.87381400	     -4.48881124	      1.24435570	    -16.50526546	      2.33433881	     -1.12133311	     -7.05669317	      2.74784021
      1.77916667	     -0.30191840	      5.31506898	     -0.68157986	      1.50567056	      1.02406387	      0.21966756	     18.29537662	     -4.41624225	      0.36421566	    -59.65407069	      6.73878523	    -16.63818396	      0.16609498	      0.53923939	      9.80053847	      4.12773188	     -4.17019301	      1.28705055	    -16.47317326	      2.26704917	     -1.13226366	     -6.95844725	      2.54134273
      1.78333333	     -0.33558563	      5.25909703	     -0.46557132	      1.51041037	      1.02421014	      0.21935547	     18.77120825	     -4.36965005	      0.22956166	    -59.06518513	      6.85828612	    -16.66496371	      0.13255523	      0.11205895	      9.73355371	      4.32339538	     -3.86773067	      1.32561130	    -16.34563907	      2.24732355	     -1.13051840	     -6.88296384	      2.46727355
      1.78750000	     -0.32270727	      5.16015189	     -0.24542750	      1.51510927	      1.02444792	      0.21904075	     19.16157375	     -4.27916659	      0.08209672	    -58.39538164	      6.91518236	    -16.70183071	      0.07661052	     -0.36810090	      9.61897747	      4.54880215	     -3.55996242	      1.37742834	    -16.30202463	      2.21425740	     -1.18410629	     -6.77636216	      2.27342794
      1.79166667	     -0.34343744	      5.11393601	     -0.04657299	      1.51986893	      1.02453503	      0.21875476	     19.60468231	     -4.24493988	     -0.02861626	    -57.75826060	      6.98244294	    -16.74765928	     -0.06876713	     -0.83583287	      9.56085421	      4.83727149	     -3.20546518	      1.38256088	    -16.38574944	      2.11948221	     -1.19405968	     -6.72570916	      1.93885944
      1.79583333	     -0.35567479	      5.04135072	      0.15915731	      1.52456126	      1.02464343	      0.21847956	     20.02182419	     -4.18389909	     -0.14878091	    -57.07268309	      7.04087018	    -16.74232946	     -0.11901204	     -1.27471126	      9.46605644	      5.02300366	     -2.91348011	      1.45222381	    -16.28704987	      2.08953431	     -1.21315659	     -6.63740296	      1.86501464
      1.80000000	     -0.35965529	      4.97974776	      0.35610871	      1.52926259	      1.02471551	      0.21821307	     20.42092038	     -4.13675678	     -0.25702353	    -56.37049373	      7.06533612	    -16.77377758	     -0.21445218	     -1.74065025	      9.38204149	      5.26043230	     -2.59189513	      1.51360080	    -16.28002842	      2.03047309	     -1.25355155	     -6.55483199	      1.61271540
      1.80416667	     -0.37044116	      4.91969695	      0.55995391	      1.53393786	      1.02475704	      0.21796372	     20.81561739	     -4.09217612	     -0.36324316	    -55.64190523	      7.11424825	    -16.77895440	     -0.32011595	     -2.18928669	      9.29369395	      5.48849834	     -2.28119411	      1.53541959	    -16.25469119	      1.96019194	     -1.29111625	     -6.48834842	      1.43547150
      1.80833333	     -0.41315009	      4.86236778	      0.78036927	      1.53862640	      1.02471107	      0.21769717	     21.23344432	     -4.06356466	     -0.49153462	    -54.89603690	      7.16647193	    -16.74583981	     -0.35862134	     -2.58190101	      9.20522785	      5.68151687	     -2.01527915	      1.60599207	    -16.16024568	      1.93652611	     -1.27266610	     -6.41921729	      1.34693249
      1.81250000	     -0.41562609	      4.80737034	      0.98105107	      1.54331196	      1.02469723	      0.21745732	     21.59775500	     -4.03321776	     -0.59823096	    -54.12238846	      7.19054522	    -16.72927996	     -0.40118954	     -3.02505515	      9.11653900	      5.88118344	     -1.73687595	      1.67460262	    -16.09657716	      1.91014951	     -1.31216659	     -6.35079159	      1.18900083
      1.81666667	     -0.39816119	      4.76475636	      1.16628279	      1.54798429	      1.02466394	      0.21724672	     21.93744713	     -4.01276933	     -0.68602431	    -53.33725340	      7.17975615	    -16.73226967	     -0.47332057	     -3.49969424	      9.03861761	      6.10809760	     -1.42937600	      1.74462695	    -16.10115994	      1.86281775	     -1.37879591	     -6.29530840	      0.93734020
      1.82083333	     -0.42719183	      4.71834766	      1.36325945	      1.55267867	      1.02453781	      0.21703175	     22.30902115	     -3.99445538	     -0.78032179	    -52.52497170	      7.19650861	    -16.69663971	     -0.54981545	     -3.91419996	      8.95350787	      6.32411765	     -1.14943776	      1.80409307	    -16.07204676	      1.80659927	     -1.38530615	     -6.24002710	      0.76120206
      1.82500000	     -0.42368241	      4.68329200	      1.56179576	      1.55732105	      1.02442902	      0.21682256	     22.63973521	     -3.99273750	     -0.87687860	    -51.69584924	      7.20424839	    -16.65440521	     -0.61542631	     -4.35242045	      8.87668137	      6.53010799	     -0.88119598	      1.87101876	    -16.03054704	      1.75688521	     -1.43485233	     -6.19587214	      0.59547694
      1.82916667	     -0.47446785	      4.64935035	      1.75825841	      1.56200782	      1.02421519	      0.21662630	     23.01545136	     -3.99525285	     -0.96727745	    -50.84375272	      7.20820506	    -16.58587476	     -0.63991620	     -4.72191109	      8.79965407	      6.69847741	     -0.64231563	      1.95207276	    -15.93241394	      1.73906654	     -1.41521978	     -6.15625871	      0.52180086
      1.83333333	     -0.48191769	      4.61382166	      1.95807630	      1.56666330	      1.02403506	      0.21642840	     23.32990468	     -4.00016744	     -1.06463771	    -49.96259518	      7.19359164	    -16.53066967	     -0.67011670	     -5.13951827	      8.71625329	      6.88432257	     -0.39147472	      2.04537670	    -15.86142625	      1.71450214	     -1.45011053	     -6.11077499	      0.37582684
      1.83750000	     -0.49984996	      4.57811973	      2.14528318	      1.57134841	      1.02380976	      0.21625383	     23.64286662	     -4.00177733	     -1.14794364	    -49.05810295	      7.16553666	    -16.46476854	     -0.69644390	     -5.54685535	      8.63184246	      7.06714598	     -0.14339611	      2.14014194	    -15.79791778	      1.69120700	     -1.47067048	     -6.06310434	      0.22039139
